<?xml version="1.0" encoding="utf-8"?>
<!-- Generator: Adobe Illustrator 28.0.0, SVG Export Plug-In . SVG Version: 6.00 Build 0)  -->
<svg version="1.1" id="Layer_1" xmlns="http://www.w3.org/2000/svg" xmlns:xlink="http://www.w3.org/1999/xlink" x="0px" y="0px"
	 viewBox="0 0 168 24" style="enable-background:new 0 0 168 24;" xml:space="preserve">
<style type="text/css">
	.st0{fill:#F29201;}
	.st1{fill:#25317A;}
</style>
<g>
	<g>
		<g>
			<g>
				<g>
					<path d="M42.93,15.32c-0.64,0-0.72,0.03-0.87,0.53l-0.98,3.06c-0.16,0.53-0.19,0.74-0.19,0.95c0,0.16,0.21,0.32,0.95,0.45
						l0.8,0.13c0.16,0.18,0.21,0.79-0.05,0.92c-0.93-0.05-1.99-0.05-3.1-0.08c-0.9,0-1.51,0.08-2.73,0.08
						c-0.29-0.16-0.27-0.71-0.08-0.92l0.72-0.08c0.64-0.08,1.17-0.29,1.62-1.32c0.45-1.05,0.93-2.32,1.64-4.21l2.39-6.43
						c0.61-1.66,1.11-2.58,1.03-3.34c1.27-0.29,2.25-1.58,2.31-1.58c0.34,0,0.5,0.13,0.61,0.53c0.21,0.76,0.53,1.74,1.19,3.61
						l3.61,10.32c0.56,1.58,0.8,2.19,1.78,2.34l1.01,0.16c0.16,0.13,0.21,0.76-0.03,0.92c-1.27-0.05-2.7-0.08-4.08-0.08
						c-1.33,0-2.36,0.03-3.58,0.08c-0.29-0.16-0.34-0.71-0.05-0.92l0.85-0.13c0.61-0.11,0.72-0.29,0.72-0.45
						c0-0.18-0.19-0.82-0.5-1.79l-0.72-2.27c-0.13-0.42-0.34-0.47-1.27-0.47H42.93z M45.77,13.93c0.61,0,0.74-0.08,0.53-0.76
						l-0.69-2.13c-0.37-1.13-0.72-2.21-0.95-2.77c-0.27,0.58-0.69,1.69-1.09,2.9l-0.66,1.98c-0.24,0.71-0.11,0.79,0.56,0.79H45.77z"
						/>
					<path d="M70.29,4.16c0,0.47,0.08,2.58,0.32,4.11c-0.11,0.32-0.82,0.42-1.01,0.18C68.89,6,67.19,4.68,64.62,4.68
						c-2.94,0-6.1,2.5-6.1,7.74s3.05,8.06,6.23,8.06c3.21,0,4.69-2.29,5.41-4.08c0.21-0.21,0.85-0.13,1.01,0.18
						c-0.19,1.95-0.64,3.53-1.01,4.13c-1.43,0.39-3.31,0.97-5.38,0.97c-2.6,0-5.25-0.61-7.13-2c-1.91-1.45-3.37-3.63-3.37-6.9
						c0-3.21,1.38-5.48,3.21-6.98c1.88-1.55,4.59-2.34,7.34-2.34C67.54,3.47,69.5,4.1,70.29,4.16z"/>
					<path d="M79.41,12.93c-1.09,0-1.11,0.03-1.11,0.76v3.79c0,2.45,0.16,2.69,1.35,2.84l0.85,0.11c0.21,0.16,0.21,0.76,0,0.92
						c-1.51-0.05-2.84-0.08-4.03-0.08c-1.27,0-2.6,0.03-3.95,0.08c-0.21-0.16-0.21-0.76,0-0.92l0.64-0.08
						c1.22-0.16,1.35-0.42,1.35-2.87v-9.8c0-2.45-0.13-2.71-1.35-2.87l-0.64-0.08c-0.21-0.16-0.21-0.76,0-0.92
						c1.3,0.05,2.68,0.08,3.95,0.08c1.19,0,2.52-0.03,3.68-0.08c0.21,0.16,0.21,0.76,0,0.92L79.6,4.81c-1.14,0.16-1.3,0.42-1.3,2.87
						v3.05c0,0.76,0.03,0.79,1.11,0.79h5.51c1.11,0,1.11-0.03,1.11-0.79V7.69c0-2.45-0.13-2.66-1.35-2.84l-0.72-0.11
						c-0.21-0.16-0.21-0.76,0-0.92c1.46,0.05,2.76,0.08,4.03,0.08c1.3,0,2.52-0.03,3.74-0.08c0.21,0.16,0.21,0.76,0,0.92l-0.53,0.08
						C89.99,5,89.83,5.24,89.83,7.69v9.8c0,2.45,0.16,2.63,1.38,2.84l0.64,0.11c0.21,0.16,0.21,0.76,0,0.92
						c-1.33-0.05-2.62-0.08-3.84-0.08c-1.33,0-2.62,0.03-3.9,0.08c-0.21-0.16-0.21-0.76,0-0.92l0.58-0.08
						c1.22-0.16,1.35-0.42,1.35-2.87v-3.79c0-0.74,0-0.76-1.11-0.76H79.41z"/>
					<path d="M98.48,15.32c-0.64,0-0.72,0.03-0.87,0.53l-0.98,3.06c-0.16,0.53-0.19,0.74-0.19,0.95c0,0.16,0.21,0.32,0.95,0.45
						l0.8,0.13c0.16,0.18,0.21,0.79-0.05,0.92c-0.93-0.05-1.99-0.05-3.1-0.08c-0.9,0-1.51,0.08-2.73,0.08
						c-0.29-0.16-0.27-0.71-0.08-0.92l0.72-0.08c0.64-0.08,1.17-0.29,1.62-1.32c0.45-1.05,0.93-2.32,1.64-4.21l2.39-6.43
						c0.61-1.66,1.11-2.58,1.03-3.34c1.27-0.29,2.25-1.58,2.31-1.58c0.34,0,0.5,0.13,0.61,0.53c0.21,0.76,0.53,1.74,1.19,3.61
						l3.61,10.32c0.56,1.58,0.8,2.19,1.78,2.34l1.01,0.16c0.16,0.13,0.21,0.76-0.03,0.92c-1.27-0.05-2.7-0.08-4.08-0.08
						c-1.33,0-2.36,0.03-3.58,0.08c-0.29-0.16-0.34-0.71-0.05-0.92l0.85-0.13c0.61-0.11,0.72-0.29,0.72-0.45
						c0-0.18-0.19-0.82-0.5-1.79l-0.72-2.27c-0.13-0.42-0.34-0.47-1.27-0.47H98.48z M101.31,13.93c0.61,0,0.74-0.08,0.53-0.76
						l-0.69-2.13c-0.37-1.13-0.72-2.21-0.95-2.77c-0.27,0.58-0.69,1.69-1.09,2.9l-0.66,1.98c-0.24,0.71-0.11,0.79,0.56,0.79H101.31z
						"/>
					<path d="M112.42,8.16c0-2.63-0.05-2.92-1.17-3.08l-0.72-0.11c-0.27-0.13-0.27-0.79,0.05-0.92c1.99-0.13,4.06-0.24,6.57-0.24
						c2.25,0,4.19,0.34,5.2,0.95c1.54,0.9,2.33,2.21,2.33,3.9c0,2.34-1.59,3.34-2.81,3.95c-0.27,0.13-0.27,0.29-0.13,0.58
						c1.75,3.53,2.84,5.5,4.11,6.58c0.69,0.55,1.38,0.71,1.78,0.74c0.24,0.13,0.24,0.53,0.11,0.68c-0.42,0.18-1.27,0.24-2.09,0.24
						c-2.44,0-3.98-0.87-5.14-2.77c-0.85-1.4-1.46-2.69-2.07-4.08c-0.32-0.71-0.74-0.92-1.4-0.92c-0.93,0-0.98,0.05-0.98,0.58v3.24
						c0,2.42,0.16,2.61,1.35,2.82l0.72,0.13c0.19,0.13,0.19,0.76,0,0.92c-1.41-0.05-2.62-0.08-3.9-0.08c-1.33,0-2.49,0.03-3.87,0.08
						c-0.21-0.16-0.21-0.79,0-0.92l0.72-0.13c1.19-0.21,1.35-0.39,1.35-2.82V8.16z M116.06,11.5c0,0.92,0.08,1,1.64,1
						c0.95,0,1.51-0.24,2.01-0.74c0.45-0.45,0.95-1.29,0.95-2.84c0-2.37-1.41-3.9-3.47-3.9c-1.09,0-1.14,0.08-1.14,1.34V11.5z"/>
					<path d="M135.73,17.48c0,2.45,0.16,2.66,1.35,2.82l1.06,0.13c0.19,0.16,0.19,0.76,0,0.92c-1.72-0.05-3.02-0.08-4.29-0.08
						c-1.27,0-2.6,0.03-4.16,0.08c-0.21-0.16-0.21-0.76,0-0.92l0.9-0.13c1.19-0.18,1.35-0.37,1.35-2.82v-1.32
						c0-1.32-0.03-1.74-0.72-3.13l-3.15-6.48c-0.53-1.08-0.77-1.5-1.7-1.66l-0.9-0.16c-0.24-0.21-0.21-0.84,0.11-0.92
						c1.19,0.05,2.17,0.08,3.74,0.08c1.62,0,2.97-0.03,3.87-0.08c0.24,0.11,0.29,0.71,0.05,0.92l-0.9,0.21
						c-0.48,0.11-0.64,0.21-0.64,0.24c0,0.21,0.13,0.61,0.69,1.84l1.25,2.82c0.4,0.87,0.9,1.92,1.22,2.58
						c0.77-1.29,1.51-2.82,2.23-4.16c1.01-1.87,1.38-2.74,1.38-3.05c0-0.16-0.27-0.26-0.9-0.37l-0.61-0.11
						c-0.21-0.13-0.24-0.79,0.03-0.92c1.06,0.05,2.01,0.08,2.97,0.08c1.01,0,1.83-0.03,2.6-0.08c0.32,0.11,0.32,0.74,0.11,0.92
						l-0.69,0.13c-0.48,0.08-0.98,0.26-1.27,0.63c-0.4,0.5-1.06,1.45-2.33,3.74l-1.67,3c-0.69,1.24-0.95,1.9-0.95,3.4V17.48z"/>
					<path d="M146.39,15.32c-0.64,0-0.72,0.03-0.87,0.53l-0.98,3.06c-0.16,0.53-0.19,0.74-0.19,0.95c0,0.16,0.21,0.32,0.95,0.45
						l0.8,0.13c0.16,0.18,0.21,0.79-0.05,0.92c-0.93-0.05-1.99-0.05-3.1-0.08c-0.9,0-1.51,0.08-2.73,0.08
						c-0.29-0.16-0.27-0.71-0.08-0.92l0.72-0.08c0.64-0.08,1.17-0.29,1.62-1.32c0.45-1.05,0.93-2.32,1.64-4.21l2.39-6.43
						c0.61-1.66,1.11-2.58,1.03-3.34c1.27-0.29,2.25-1.58,2.31-1.58c0.34,0,0.5,0.13,0.61,0.53c0.21,0.76,0.53,1.74,1.19,3.61
						l3.61,10.32c0.56,1.58,0.8,2.19,1.78,2.34l1.01,0.16c0.16,0.13,0.21,0.76-0.03,0.92c-1.27-0.05-2.7-0.08-4.08-0.08
						c-1.33,0-2.36,0.03-3.58,0.08c-0.29-0.16-0.34-0.71-0.05-0.92l0.85-0.13c0.61-0.11,0.72-0.29,0.72-0.45
						c0-0.18-0.19-0.82-0.5-1.79l-0.72-2.27c-0.13-0.42-0.34-0.47-1.27-0.47H146.39z M149.22,13.93c0.61,0,0.74-0.08,0.53-0.76
						l-0.69-2.13c-0.37-1.13-0.72-2.21-0.95-2.77c-0.27,0.58-0.69,1.69-1.09,2.9l-0.66,1.98c-0.24,0.71-0.11,0.79,0.56,0.79H149.22z
						"/>
				</g>
			</g>
		</g>
	</g>
	<g>
		<g>
			<path class="st0" d="M15.71,9.81c-2.61-1.77-5.16-1.87-5.27-1.87l-0.06,1.76c0.02,0,2.14,0.08,4.32,1.57
				c0.27,0.18,0.53,0.39,0.78,0.6l0.89-1.55C16.15,10.13,15.93,9.96,15.71,9.81z"/>
			<path class="st0" d="M24.93,9.81c2.61-1.77,5.16-1.87,5.27-1.87l0.06,1.76c-0.02,0-2.14,0.08-4.32,1.57
				c-0.27,0.18-0.53,0.39-0.78,0.6l-0.89-1.55C24.49,10.13,24.71,9.96,24.93,9.81z"/>
			<g>
				<path class="st1" d="M15.49,11.86L9.84,21.7h9.58C19.27,17.24,17.95,13.94,15.49,11.86z"/>
				<path class="st1" d="M25.13,11.88c-2.45,2.08-3.76,5.37-3.91,9.82h9.54L25.13,11.88z"/>
				<path class="st1" d="M20.32,16.27c0.93-2.91,2.46-4.77,3.92-5.94L20.3,3.47l-3.92,6.83C17.85,11.48,19.39,13.34,20.32,16.27z"/>
			</g>
		</g>
	</g>
</g>
</svg>
